<?xml version="1.0" standalone="no"?>
<!DOCTYPE svg PUBLIC "-//W3C//DTD SVG 20010904//EN"
 "http://www.w3.org/TR/2001/REC-SVG-20010904/DTD/svg10.dtd">
<svg version="1.0" xmlns="http://www.w3.org/2000/svg"
 width="24.000000pt" height="24.000000pt" viewBox="0 0 24.000000 24.000000"
 preserveAspectRatio="xMidYMid meet">

<g transform="translate(0.000000,24.000000) scale(0.100000,-0.100000)"
fill="#000000" stroke="none">
<path d="M45 190 l-39 -40 72 -73 72 -72 42 43 43 42 -70 70 c-38 38 -72 70
-75 70 -3 0 -24 -18 -45 -40z m110 -30 l49 -50 -37 -37 -37 -38 -57 57 c-48
48 -55 59 -44 72 7 8 18 14 24 13 6 -1 12 4 13 11 3 21 4 22 22 22 10 0 40
-23 67 -50z m65 -69 c0 -13 -26 -32 -33 -24 -8 7 11 33 24 33 5 0 9 -4 9 -9z
m-54 -59 c-8 -9 -19 -13 -22 -9 -10 9 16 38 28 31 6 -4 4 -13 -6 -22z"/>
<path d="M167 217 c-7 -19 34 -59 51 -48 9 5 4 15 -17 35 -22 21 -30 24 -34
13z m33 -22 c19 -22 8 -25 -12 -3 -10 10 -14 18 -9 18 5 0 14 -7 21 -15z"/>
<path d="M22 71 c-9 -5 -4 -15 17 -35 22 -21 30 -24 34 -13 7 19 -34 59 -51
48z m42 -40 c-5 -6 -34 20 -34 30 0 5 8 1 18 -8 10 -10 17 -20 16 -22z"/>
</g>
</svg>
